<?xml version="1.0" encoding="utf-8"?>
<!-- Generator: Adobe Illustrator 15.0.0, SVG Export Plug-In . SVG Version: 6.00 Build 0)  -->
<!DOCTYPE svg PUBLIC "-//W3C//DTD SVG 1.1//EN" "http://www.w3.org/Graphics/SVG/1.1/DTD/svg11.dtd">
<svg version="1.1" id="Warstwa_1" xmlns="http://www.w3.org/2000/svg" xmlns:xlink="http://www.w3.org/1999/xlink" x="0px" y="0px"
	 width="91px" height="87px" viewBox="0 0 91 87" enable-background="new 0 0 91 87" xml:space="preserve">
<g>
	<path fill="#233D4B" d="M29.019,25.805c-0.685,0.957-1.502,1.668-2.473,2.253c0.902,2.196,1.932,4.239,2.952,5.882
		c1.005,1.59,3.325,4.848,5.551,3.476c0.478-0.319,0.86,0.369,0.367,0.635c-3.8,2.43-6.905-0.761-8.776-3.868
		c-0.953-1.606-1.795-3.419-2.501-5.158c-1.856,0.511-3.757,0.691-5.625,0.975l-1.632,4.813c-2.451,7.02-4.796,10.442-6.754,11.559
		c-2.137,1.287-3.631-0.211-4.207-2.277C5.27,41.593,5.8,37.692,8.104,34.512c2.646-3.571,6.253-4.562,9.852-5.203
		c0.938-2.761,2.05-6.265,3.057-9.737c-0.949-3.85-1.736-10.741,0.689-13.899c0.773-1.042,1.967-1.466,2.361,0.197
		c0.615,2.572-0.512,7.345-1.202,9.973c0.728,3.688,1.931,7.806,3.406,11.494c0.829-0.483,1.558-1.109,2.153-1.982
		C28.692,24.928,29.29,25.376,29.019,25.805z M8.687,34.909c-2.195,2.973-2.685,6.632-2.029,8.961
		c0.432,1.594,1.444,2.836,3.156,1.852c1.748-1.053,3.968-4.319,6.309-11.135c0.523-1.483,1.047-2.966,1.518-4.434
		C14.373,30.751,11.044,31.714,8.687,34.909z M21.379,20.956c-0.873,2.97-1.831,5.852-2.585,8.269
		c1.642-0.273,3.421-0.474,5.066-0.92C22.894,25.899,22.084,23.443,21.379,20.956z M23.391,6.306
		c-0.229-1.311-0.557-0.692-0.82,0.136c-0.435,1.398-0.62,3.986-0.014,7.654C23.472,10.135,23.656,7.548,23.391,6.306z"/>
	<path fill="#233D4B" d="M38.575,29.952c-1.553-2.63-4.021-4.865-4.271-8.124c-0.11-1.863,0.725-3.27,1.93-4.214
		c2.183-1.704,5.691-1.513,6.063,1.766c0.04,0.506-0.744,0.573-0.784,0.068c-0.276-2.217-2.685-2.571-3.961-0.915
		c-0.502,0.614-0.75,1.495-0.658,2.732c0.179,2.648,2.146,4.749,3.59,6.838c2.683-2.318,4.905-4.264,6.245-7.78
		c0.201-0.464,0.91-0.221,0.76,0.228c-1.432,3.775-3.708,5.737-6.568,8.224c1.452,2.489,1.897,5.631-0.757,7.479
		c-1.627,1.073-4.308,1.146-4.316-1.324C35.837,33.782,36.592,32.113,38.575,29.952z M38.959,30.639
		c-1.717,1.907-2.409,3.211-2.366,4.291c0.058,1.881,2.311,1.536,2.991,0.004C39.989,34.005,39.955,32.578,38.959,30.639z"/>
	<path fill="#233D4B" d="M49.469,14.25c0.241,0.789-0.195,1.612-0.984,1.854c-0.789,0.241-1.561-0.212-1.801-1.001
		c-0.242-0.789,0.211-1.561,1-1.802C48.473,13.06,49.229,13.461,49.469,14.25z M55.723,18.143c-0.527,0.91-2.464,4.724-4.479,6.779
		c-1.372,1.341-2.998,1.666-3.802,0.359c-0.973-1.485-0.736-5.411-0.69-6.575c0.06-1.686,2.606-2.006,2.589-0.563
		c-0.012,2.592-0.041,3.809,0.014,5.115c0.301,4.739,5.121-4.502,5.735-5.496C55.307,17.35,55.994,17.715,55.723,18.143z"/>
	<path fill="#233D4B" d="M60.186,13.556c0.106-1.529,2.479-1.853,2.61-0.111c-0.001,1.496-0.138,4.242,0.239,5.851
		c1.063,4.218,4.369-4.329,4.727-5.417c0.135-0.501,0.877-0.326,0.743,0.176c-0.601,1.794-2.282,5.875-3.846,7.159
		c-2.999,2.414-4.261-0.766-4.403-3.482c-0.146,1.022-0.398,2.077-0.783,2.886c-0.678,1.357-2.125,2.262-3.435,0.994
		c-1.086-1.105-1.209-3.196-0.738-4.662C56.052,14.706,57.938,13.726,60.186,13.556z M57.331,19.261
		c0.071,0.61,0.579,1.893,1.313,1.093c0.857-0.953,1.381-4.506,1.52-5.929C58.218,15.02,57.083,17.324,57.331,19.261z"/>
	<path fill="#233D4B" d="M26.677,49.796c0.144-1.598-0.239-3.033-1.083-4.098c-3.258-4.063-9.569-0.635-10.182,3.752
		c-0.506,3.605,1.426,7.846,6.482,8.77c0.606,0.102,0.646,0.605,0.067,0.785c-8.291,2.598-9.16,12.525-5.678,17.324
		c2.188,3.012,5.123,3.205,7.882,2.072c6.836-2.842,8.662-10.59,10.517-16.738c0.15-0.447,0.91-0.221,0.76,0.229
		c-2.139,7.098-4.094,14.426-10.797,17.514c-3.43,1.568-7.308,1.49-10.243-1.52c-4.77-4.865-4.295-15.709,4.347-19.047
		c-6.915-2.482-7.594-9.579-3.729-13.294c3.102-3.021,9.154-3.726,11.547,0.146c0.703,1.164,1.017,2.563,0.926,4.145
		C27.428,50.37,26.663,50.317,26.677,49.796z"/>
	<path fill="#233D4B" d="M49.521,57.522c-0.15,0.447-1.556,5.248-2.877,8.068c-0.625,1.342-2.212,3.67-3.713,1.771
		c-1.216-1.525-1.246-5.945-1.354-7.234c-0.183-1.727-0.393-2.41-1.059-0.826c-1.05,2.393-1.521,4.607-2.353,6.588
		c-0.629,1.516-2.4,2.115-3.028,0.064c-0.548-1.789-0.499-5.195-0.458-6.188c0.056-1.512,2.574-2.111,2.557-0.668l0.068,3.602
		c0.053,2.805-0.053,3.584,0.832,0.84c0.564-1.727,1.242-3.832,2.044-5.344c1.099-2.234,3.392-2.074,3.856,0.947
		c0.35,2.078,0.197,4.021,0.408,6.029c0.14,1.395,0.482,2.324,1.477,0.123c1.269-2.807,2.728-7.623,2.804-7.936
		C48.896,56.792,49.707,57.005,49.521,57.522z"/>
	<path fill="#233D4B" d="M48.43,72.349c1.217-3.535,3.666-6.24,6.186-8.91l-0.254-5.33c-0.117,0.555-0.25,1.055-0.438,1.572
		c-0.467,1.293-1.379,3.012-2.746,3.43c-0.789,0.242-1.596-0.145-2.08-0.973c-1-1.766-0.75-4.143,0.002-5.813
		c0.775-1.789,2.375-3.141,4.894-2.992l0.004-0.176c-0.03-1.6,2.308-1.855,2.5-0.477c0.132,0.994,0.494,5.369,0.551,7.998
		c1.827-2.113,3.431-4.387,4.353-7.199c0.15-0.449,0.947-0.291,0.761,0.227c-1.104,3.156-2.959,5.738-5.052,8.105
		c0.149,5.186,0.957,17.018-4.59,19.752c-1.654,0.795-2.885,0.539-3.89-1.051C47.607,78.87,47.211,75.886,48.43,72.349z
		 M53.918,76.188c0.717-3.67,0.75-7.879,0.686-11.654c-2.234,2.467-4.349,4.955-5.467,8.061c-1.125,3.275-0.793,6.051,0.127,7.553
		c0.521,0.76,1.356,1.424,2.291,0.908C52.49,80.538,53.396,78.995,53.918,76.188z M53.216,59.438
		c0.607-1.396,0.761-3.34,0.791-5.305c-2.637,0.404-3.479,4.229-2.835,6.332c0.161,0.525,0.379,0.861,0.659,0.834
		C52.457,61.28,52.977,59.972,53.216,59.438z"/>
	<path fill="#233D4B" d="M72.027,50.626c-0.62,1.916-2.066,4.891-3.764,6.676c-1.268,1.309-3.412,2.195-4.959,1.461
		c-1.996-0.883-2.349-3.535-1.886-5.404c0.447-1.92,1.886-3.798,4.157-4.264c0.927-0.169,1.662,0.354,1.357,1.425
		c-0.244,0.707-1.065,1.591-2.955,2.745c-0.397,1.33-0.359,2.584,0.004,3.393c0.492,1.23,2.156,1.41,3.813-0.131
		c1.53-1.391,3.002-4.658,3.489-6.074C71.473,49.934,72.163,50.126,72.027,50.626z M66.279,50.26
		c0.113-0.38-0.161-0.526-0.461-0.376c-0.771,0.293-1.323,1.498-1.551,2.258C65.471,51.37,66.146,50.761,66.279,50.26z"/>
	<path fill="#233D4B" d="M73.766,47.276c0.148,3.117,0.067,6.422,0.922,9.207c0.709,2.314,2.065,0.174,2.701-0.941
		c1.653-2.865,3.35-7.469,3.521-8.038c0.149-0.448,0.894-0.272,0.707,0.243c-0.187,0.518-1.767,5.314-3.523,8.211
		c-0.543,0.857-1.05,1.646-1.563,2.033c-1.362,0.992-2.676,0.646-3.495-0.713c-1.591-2.561-1.927-7.979-1.993-10.261
		c-0.15-4.438-0.223-16.496,3.659-19.41c0.938-0.69,1.886-0.98,2.677,0.1c0.402,0.567,0.764,1.55,0.977,2.807
		C79,34.515,78.292,41.404,73.766,47.276z M77.598,30.688c-0.181-1.152-0.507-2.03-0.842-2.56c-0.572-0.745-1.039-0.2-1.383,0.366
		c-0.292,0.55-0.52,1.31-0.792,2.486c-1.078,4.931-0.91,10.17-0.854,15.042C77.549,40.48,78.188,34.304,77.598,30.688z"/>
</g>
</svg>
