<?xml version="1.0" encoding="utf-8"?>
<!-- Generator: Adobe Illustrator 15.0.0, SVG Export Plug-In . SVG Version: 6.00 Build 0)  -->
<!DOCTYPE svg PUBLIC "-//W3C//DTD SVG 1.1//EN" "http://www.w3.org/Graphics/SVG/1.1/DTD/svg11.dtd">
<svg version="1.1" id="Warstwa_1" xmlns="http://www.w3.org/2000/svg" xmlns:xlink="http://www.w3.org/1999/xlink" x="0px" y="0px"
	 width="65px" height="38px" viewBox="0 0 65 38" enable-background="new 0 0 65 38" xml:space="preserve">
<path fill="#233D4B" d="M9.438,18.096c17-0.577,25.5,0.423,44.63,4.669c-14.389-7.28-28.926-6.779-44.63-7.169
	C7.825,15.556,7.829,18.056,9.438,18.096L9.438,18.096z"/>
<path fill="#233D4B" d="M8.069,18.425c5.16-2.933,10.017-6.007,14.253-10.196c1.148-1.135-10.539,5.208-15.515,8.037
	C5.407,17.063,6.666,19.223,8.069,18.425L8.069,18.425z"/>
<path fill="#233D4B" d="M8.106,18.551c2.986,1.193,5.811,2.678,8.047,5.028c1.353,1.421,6.161,5.04,5.365,3.635
	c-1.164-2.055-2.307-4.048-3.947-5.771c-2.389-2.511-5.634-4.038-8.8-5.304C7.272,15.542,6.628,17.96,8.106,18.551L8.106,18.551z"/>
<path fill="#233D4B" d="M38.863,12.807c6.422,0.711,9.521,1.762,16.322,5.205c-4.763-4.795-10.254-5.398-16.104-6.553
	C38.479,11.338,38.264,12.688,38.863,12.807L38.863,12.807z"/>
<path fill="#233D4B" d="M35.863,24.807c6.422,0.711,9.521,1.762,16.322,5.205c-4.763-4.795-10.254-5.397-16.104-6.553
	C35.479,23.338,35.264,24.688,35.863,24.807L35.863,24.807z"/>
</svg>
