<?xml version="1.0" encoding="utf-8"?>
<!-- Generator: Adobe Illustrator 15.0.0, SVG Export Plug-In . SVG Version: 6.00 Build 0)  -->
<!DOCTYPE svg PUBLIC "-//W3C//DTD SVG 1.1//EN" "http://www.w3.org/Graphics/SVG/1.1/DTD/svg11.dtd">
<svg version="1.1" id="Warstwa_1" xmlns="http://www.w3.org/2000/svg" xmlns:xlink="http://www.w3.org/1999/xlink" x="0px" y="0px"
	 width="32px" height="34px" viewBox="0 0 32 34" enable-background="new 0 0 32 34" xml:space="preserve">
<g>
	<path fill="#1F3953" d="M15.336,8.333c0.795,7.521,1.459,9.675-0.095,19.926c5.019-7.917,2.405-13.023,2.594-19.999
		C17.854,7.544,15.355,7.618,15.336,8.333L15.336,8.333z"/>
	<path fill="#1F3953" d="M14.987,7.646c3.082,5.072,6.294,9.838,10.605,13.952c1.168,1.114-5.512-10.384-8.483-15.275
		C16.271,4.945,14.148,6.267,14.987,7.646L14.987,7.646z"/>
	<path fill="#1F3953" d="M14.862,7.687c-1.106,3.02-2.508,5.887-4.793,8.189c-1.381,1.393-4.859,6.304-3.478,5.468
		c2.021-1.224,3.979-2.424,5.654-4.113c2.441-2.46,3.873-5.748,5.046-8.949C17.846,6.767,15.41,6.193,14.862,7.687L14.862,7.687z"/>
</g>
</svg>
