<?xml version="1.0" encoding="utf-8"?>
<!-- Generator: Adobe Illustrator 15.0.0, SVG Export Plug-In . SVG Version: 6.00 Build 0)  -->
<!DOCTYPE svg PUBLIC "-//W3C//DTD SVG 1.1//EN" "http://www.w3.org/Graphics/SVG/1.1/DTD/svg11.dtd">
<svg version="1.1" id="Warstwa_1" xmlns="http://www.w3.org/2000/svg" xmlns:xlink="http://www.w3.org/1999/xlink" x="0px" y="0px"
	 width="32px" height="34px" viewBox="0 0 32 34" enable-background="new 0 0 32 34" xml:space="preserve">
<g>
	<path fill="#FFFFFF" d="M24.379,13.546c-7.178,2.382-9.141,3.492-19.487,4.162c8.806,3.213,13.236-0.431,20.091-1.735
		C25.688,15.838,25.082,13.412,24.379,13.546L24.379,13.546z"/>
	<path fill="#FFFFFF" d="M24.976,13.058c-4.297,4.093-8.268,8.25-11.366,13.339c-0.839,1.379,8.968-7.602,13.112-11.549
		C27.889,13.736,26.145,11.944,24.976,13.058L24.976,13.058z"/>
	<path fill="#FFFFFF" d="M24.91,12.944c-3.187-0.436-6.287-1.194-9.024-2.934C14.23,8.958,8.689,6.609,9.801,7.78
		c1.626,1.712,3.217,3.37,5.226,4.646c2.925,1.859,6.442,2.557,9.82,3.019C26.445,15.663,26.486,13.161,24.91,12.944L24.91,12.944z"
		/>
</g>
</svg>
