<?xml version="1.0" encoding="utf-8"?>
<!-- Generator: Adobe Illustrator 15.0.0, SVG Export Plug-In . SVG Version: 6.00 Build 0)  -->
<!DOCTYPE svg PUBLIC "-//W3C//DTD SVG 1.1//EN" "http://www.w3.org/Graphics/SVG/1.1/DTD/svg11.dtd">
<svg version="1.1" id="Warstwa_1" xmlns="http://www.w3.org/2000/svg" xmlns:xlink="http://www.w3.org/1999/xlink" x="0px" y="0px"
	 width="40px" height="34px" viewBox="0 0 40 34" enable-background="new 0 0 40 34" xml:space="preserve">
<g>
	<path fill="#FFFFFF" d="M320.356,80.559c-7.18,2.381-9.142,3.491-19.487,4.161c8.806,3.214,13.236-0.431,20.091-1.735
		C321.664,82.85,321.059,80.424,320.356,80.559L320.356,80.559z"/>
	<path fill="#FFFFFF" d="M320.953,80.07c-4.298,4.093-8.27,8.25-11.367,13.339c-0.838,1.379,8.969-7.603,13.113-11.55
		C323.865,80.748,322.121,78.956,320.953,80.07L320.953,80.07z"/>
	<path fill="#FFFFFF" d="M320.887,79.956c-3.187-0.437-6.287-1.194-9.022-2.935c-1.656-1.052-7.197-3.4-6.085-2.229
		c1.626,1.712,3.218,3.37,5.226,4.646c2.925,1.859,6.442,2.558,9.82,3.02C322.422,82.675,322.463,80.172,320.887,79.956
		L320.887,79.956z"/>
</g>
<g>
	<path fill="#233D4B" d="M7.96,24.782C7.204,24.002,6.826,23,6.826,21.775c0-1.416,0.468-2.939,1.404-4.571s2.118-3.006,3.546-4.122
		c1.428-1.116,2.826-1.674,4.194-1.674c1.488,0,2.232,0.732,2.232,2.196c0,1.176-0.444,2.274-1.332,3.294
		c-0.888,1.021-2.028,1.854-3.42,2.502c-1.392,0.647-2.785,1.043-4.176,1.188c-0.096,0.408-0.144,0.84-0.144,1.296
		c0,0.864,0.216,1.584,0.648,2.16c0.432,0.576,1.164,0.864,2.196,0.864c1.463,0,2.939-0.612,4.428-1.836
		c1.488-1.225,2.7-2.736,3.636-4.536l0.432,0.323c-0.96,2.137-2.292,3.853-3.996,5.148c-1.705,1.297-3.456,1.944-5.256,1.944
		C9.802,25.952,8.716,25.563,7.96,24.782z M12.622,18.393c1.104-0.648,2.046-1.411,2.826-2.287c0.779-0.875,1.17-1.793,1.17-2.754
		c0-0.288-0.054-0.498-0.162-0.63c-0.108-0.132-0.306-0.198-0.594-0.198c-0.745,0-1.554,0.373-2.43,1.116
		c-0.876,0.744-1.68,1.692-2.412,2.844s-1.254,2.292-1.566,3.42C10.462,19.544,11.518,19.04,12.622,18.393z"/>
	<path fill="#233D4B" d="M29.074,24.458c-0.432-0.419-0.648-0.978-0.648-1.674c0-0.312,0.055-0.679,0.162-1.099
		c0.107-0.418,0.223-0.832,0.342-1.242c0.145-0.432,0.271-0.887,0.379-1.367c0.107-0.48,0.162-0.912,0.162-1.296
		c0-1.176-0.48-1.764-1.441-1.764c-0.911,0-1.865,0.48-2.861,1.44s-1.884,2.028-2.664,3.204c-0.779,1.176-1.662,2.592-2.646,4.248
		c-0.408,0-0.78-0.066-1.116-0.198c-0.335-0.132-0.6-0.33-0.792-0.594c0-0.12,0.157-0.552,0.468-1.296
		c0.6-1.536,1.092-2.935,1.476-4.194c0.383-1.26,0.587-2.381,0.612-3.366c0.167-0.192,0.408-0.366,0.721-0.522
		c0.312-0.156,0.623-0.234,0.936-0.234c0.648,0,0.972,0.312,0.972,0.936c0,0.36-0.108,0.99-0.323,1.89
		c-0.217,0.9-0.492,1.854-0.828,2.861c1.151-1.775,2.375-3.275,3.672-4.5c1.296-1.224,2.568-1.836,3.816-1.836
		c0.887,0,1.553,0.318,1.997,0.954c0.444,0.636,0.666,1.398,0.666,2.286c0,0.528-0.065,1.032-0.198,1.511
		c-0.131,0.48-0.33,1.033-0.594,1.656c-0.216,0.528-0.384,0.984-0.504,1.368c-0.121,0.384-0.18,0.769-0.18,1.152
		c0,0.913,0.359,1.368,1.08,1.368c0.816,0,1.662-0.541,2.537-1.62c0.877-1.08,1.711-2.412,2.502-3.996l0.396,0.468
		c-1.729,4.057-3.804,6.084-6.229,6.084C30.13,25.088,29.506,24.878,29.074,24.458z"/>
</g>
</svg>
