<?xml version="1.0" encoding="utf-8"?>
<!-- Generator: Adobe Illustrator 15.0.0, SVG Export Plug-In . SVG Version: 6.00 Build 0)  -->
<!DOCTYPE svg PUBLIC "-//W3C//DTD SVG 1.1//EN" "http://www.w3.org/Graphics/SVG/1.1/DTD/svg11.dtd">
<svg version="1.1" id="Warstwa_1" xmlns="http://www.w3.org/2000/svg" xmlns:xlink="http://www.w3.org/1999/xlink" x="0px" y="0px"
	 width="40px" height="34px" viewBox="0 0 40 34" enable-background="new 0 0 40 34" xml:space="preserve">
<g>
	<path fill="#FFFFFF" d="M320.356,80.558c-7.179,2.382-9.141,3.492-19.487,4.162c8.806,3.213,13.236-0.431,20.091-1.735
		C321.664,82.85,321.059,80.424,320.356,80.558L320.356,80.558z"/>
	<path fill="#FFFFFF" d="M320.953,80.07c-4.298,4.093-8.269,8.25-11.367,13.339c-0.838,1.379,8.969-7.602,13.113-11.549
		C323.865,80.748,322.121,78.956,320.953,80.07L320.953,80.07z"/>
	<path fill="#FFFFFF" d="M320.887,79.956c-3.187-0.436-6.287-1.194-9.023-2.934c-1.656-1.052-7.197-3.401-6.085-2.23
		c1.626,1.712,3.218,3.37,5.226,4.646c2.925,1.859,6.442,2.557,9.82,3.019C322.422,82.675,322.463,80.172,320.887,79.956
		L320.887,79.956z"/>
</g>
<g>
	<path fill="#FFFFFF" d="M7.96,24.782C7.204,24.002,6.826,23,6.826,21.776c0-1.416,0.468-2.94,1.404-4.572
		c0.936-1.632,2.118-3.006,3.546-4.122c1.428-1.116,2.826-1.674,4.194-1.674c1.488,0,2.232,0.732,2.232,2.196
		c0,1.176-0.444,2.274-1.332,3.294c-0.888,1.021-2.028,1.854-3.42,2.502c-1.392,0.648-2.785,1.044-4.176,1.188
		c-0.096,0.408-0.144,0.84-0.144,1.296c0,0.864,0.216,1.584,0.648,2.16c0.432,0.576,1.164,0.864,2.196,0.864
		c1.463,0,2.939-0.612,4.428-1.836c1.488-1.224,2.7-2.736,3.636-4.536l0.432,0.324c-0.96,2.136-2.292,3.852-3.996,5.148
		c-1.705,1.296-3.456,1.944-5.256,1.944C9.802,25.952,8.716,25.562,7.96,24.782z M12.622,18.392c1.104-0.648,2.046-1.41,2.826-2.286
		c0.779-0.875,1.17-1.793,1.17-2.754c0-0.288-0.054-0.498-0.162-0.63c-0.108-0.132-0.306-0.198-0.594-0.198
		c-0.745,0-1.554,0.373-2.43,1.116c-0.876,0.744-1.68,1.692-2.412,2.844c-0.732,1.152-1.254,2.292-1.566,3.42
		C10.462,19.544,11.518,19.04,12.622,18.392z"/>
	<path fill="#FFFFFF" d="M29.074,24.458c-0.432-0.419-0.648-0.978-0.648-1.674c0-0.312,0.054-0.678,0.162-1.098
		c0.108-0.419,0.222-0.833,0.342-1.242c0.144-0.432,0.27-0.888,0.378-1.368c0.108-0.48,0.162-0.912,0.162-1.296
		c0-1.176-0.48-1.764-1.44-1.764c-0.912,0-1.866,0.48-2.862,1.44c-0.996,0.96-1.884,2.028-2.664,3.204
		c-0.78,1.176-1.662,2.592-2.646,4.248c-0.408,0-0.78-0.066-1.116-0.198c-0.335-0.132-0.6-0.33-0.792-0.594
		c0-0.12,0.157-0.552,0.468-1.296c0.6-1.536,1.092-2.934,1.476-4.194c0.383-1.26,0.587-2.381,0.612-3.366
		c0.167-0.192,0.408-0.366,0.72-0.522c0.312-0.156,0.624-0.234,0.936-0.234c0.648,0,0.972,0.312,0.972,0.936
		c0,0.36-0.108,0.99-0.324,1.89c-0.216,0.9-0.492,1.854-0.828,2.862c1.152-1.776,2.376-3.276,3.672-4.5
		c1.296-1.224,2.568-1.836,3.816-1.836c0.888,0,1.554,0.318,1.998,0.954c0.444,0.636,0.666,1.398,0.666,2.286
		c0,0.528-0.066,1.032-0.198,1.512c-0.132,0.48-0.331,1.032-0.594,1.656c-0.216,0.528-0.384,0.984-0.504,1.368
		c-0.121,0.384-0.18,0.768-0.18,1.152c0,0.913,0.36,1.368,1.08,1.368c0.816,0,1.662-0.54,2.538-1.62
		c0.876-1.08,1.71-2.412,2.502-3.996l0.396,0.468c-1.728,4.056-3.804,6.084-6.228,6.084C30.13,25.088,29.506,24.878,29.074,24.458z"
		/>
</g>
</svg>
