<?xml version="1.0" encoding="utf-8"?>
<!-- Generator: Adobe Illustrator 15.0.0, SVG Export Plug-In . SVG Version: 6.00 Build 0)  -->
<!DOCTYPE svg PUBLIC "-//W3C//DTD SVG 1.1//EN" "http://www.w3.org/Graphics/SVG/1.1/DTD/svg11.dtd">
<svg version="1.1" id="Warstwa_1" xmlns="http://www.w3.org/2000/svg" xmlns:xlink="http://www.w3.org/1999/xlink" x="0px" y="0px"
	 width="91px" height="87px" viewBox="0 -18.5 91 87" enable-background="new 0 -18.5 91 87" xml:space="preserve">
<g>
	<path fill="#FFFFFF" d="M29.019,8.148c-0.685,0.957-1.502,1.668-2.473,2.253c0.902,2.196,1.932,4.239,2.952,5.882
		c1.005,1.59,3.325,4.848,5.551,3.476c0.478-0.319,0.86,0.369,0.367,0.635c-3.8,2.43-6.905-0.761-8.776-3.868
		c-0.953-1.606-1.795-3.419-2.501-5.158c-1.856,0.511-3.757,0.691-5.625,0.975l-1.632,4.813c-2.451,7.02-4.796,10.442-6.754,11.56
		c-2.137,1.286-3.631-0.211-4.207-2.278C5.27,23.936,5.8,20.035,8.104,16.855c2.646-3.571,6.253-4.562,9.852-5.203
		c0.938-2.761,2.05-6.265,3.057-9.737c-0.949-3.85-1.736-10.741,0.689-13.899c0.773-1.042,1.967-1.466,2.361,0.197
		c0.615,2.572-0.512,7.345-1.202,9.973c0.728,3.688,1.931,7.806,3.406,11.494c0.829-0.483,1.558-1.109,2.153-1.982
		C28.692,7.271,29.29,7.72,29.019,8.148z M8.687,17.252c-2.195,2.973-2.685,6.632-2.029,8.961c0.432,1.594,1.444,2.836,3.156,1.852
		c1.748-1.053,3.968-4.32,6.309-11.135c0.523-1.483,1.047-2.966,1.518-4.434C14.373,13.095,11.044,14.057,8.687,17.252z
		 M21.379,3.299c-0.873,2.97-1.831,5.852-2.585,8.269c1.642-0.273,3.421-0.474,5.066-0.92C22.894,8.242,22.084,5.786,21.379,3.299z
		 M23.391-11.351c-0.229-1.311-0.557-0.692-0.82,0.136c-0.435,1.398-0.62,3.986-0.014,7.654
		C23.472-7.522,23.656-10.109,23.391-11.351z"/>
	<path fill="#FFFFFF" d="M38.575,12.295c-1.553-2.63-4.021-4.865-4.271-8.124c-0.11-1.863,0.725-3.27,1.93-4.214
		c2.183-1.704,5.691-1.513,6.063,1.766c0.04,0.506-0.744,0.573-0.784,0.068c-0.276-2.217-2.685-2.571-3.961-0.915
		c-0.502,0.614-0.75,1.495-0.658,2.732c0.179,2.648,2.146,4.749,3.59,6.838c2.683-2.318,4.905-4.264,6.244-7.78
		c0.202-0.464,0.91-0.221,0.76,0.228c-1.432,3.775-3.707,5.737-6.568,8.224c1.452,2.489,1.897,5.631-0.757,7.479
		c-1.627,1.073-4.308,1.146-4.316-1.324C35.837,16.125,36.592,14.456,38.575,12.295z M38.959,12.982
		c-1.717,1.907-2.409,3.211-2.366,4.291c0.058,1.881,2.311,1.536,2.991,0.004C39.989,16.348,39.955,14.921,38.959,12.982z"/>
	<path fill="#FFFFFF" d="M49.469-3.407c0.241,0.789-0.196,1.612-0.985,1.854c-0.788,0.241-1.56-0.212-1.801-1.001
		c-0.242-0.789,0.211-1.561,1-1.802S49.228-4.196,49.469-3.407z M55.723,0.486c-0.527,0.91-2.464,4.724-4.48,6.779
		c-1.372,1.341-2.998,1.666-3.801,0.359c-0.973-1.485-0.737-5.411-0.691-6.575c0.059-1.686,2.606-2.006,2.589-0.563
		c-0.012,2.592-0.041,3.809,0.014,5.115c0.301,4.739,5.12-4.502,5.735-5.496C55.307-0.307,55.994,0.058,55.723,0.486z"/>
	<path fill="#FFFFFF" d="M60.185-4.101c0.107-1.529,2.48-1.853,2.611-0.111c-0.001,1.496-0.138,4.242,0.239,5.851
		c1.063,4.218,4.369-4.329,4.726-5.417c0.135-0.501,0.878-0.326,0.744,0.176c-0.601,1.794-2.283,5.875-3.846,7.159
		c-2.999,2.414-4.261-0.766-4.403-3.482c-0.146,1.022-0.398,2.077-0.784,2.886c-0.677,1.357-2.125,2.262-3.434,0.994
		C54.952,2.85,54.829,0.759,55.3-0.707C56.052-2.951,57.937-3.931,60.185-4.101z M57.331,1.604c0.072,0.61,0.579,1.893,1.313,1.093
		c0.858-0.953,1.381-4.506,1.52-5.929C58.218-2.637,57.083-0.333,57.331,1.604z"/>
	<path fill="#FFFFFF" d="M26.677,32.139c0.144-1.598-0.239-3.033-1.083-4.098c-3.258-4.063-9.569-0.635-10.182,3.752
		c-0.506,3.605,1.426,7.845,6.482,8.769c0.606,0.103,0.646,0.607,0.067,0.785c-8.291,2.598-9.16,12.526-5.678,17.325
		c2.188,3.012,5.123,3.205,7.882,2.072c6.836-2.842,8.662-10.59,10.517-16.737c0.15-0.448,0.91-0.222,0.76,0.228
		c-2.139,7.097-4.094,14.425-10.797,17.514c-3.43,1.568-7.308,1.49-10.243-1.521c-4.77-4.865-4.295-15.709,4.347-19.046
		c-6.915-2.483-7.594-9.579-3.729-13.294c3.102-3.021,9.154-3.725,11.547,0.145c0.703,1.164,1.017,2.563,0.926,4.145
		C27.428,32.713,26.663,32.66,26.677,32.139z"/>
	<path fill="#FFFFFF" d="M49.521,39.865c-0.15,0.447-1.555,5.249-2.877,8.069c-0.624,1.342-2.212,3.669-3.713,1.771
		c-1.216-1.525-1.246-5.945-1.354-7.234c-0.183-1.727-0.393-2.41-1.059-0.826c-1.05,2.392-1.521,4.607-2.353,6.587
		c-0.629,1.516-2.4,2.116-3.028,0.065c-0.548-1.788-0.499-5.196-0.458-6.187c0.056-1.513,2.574-2.112,2.557-0.669l0.068,3.603
		c0.053,2.803-0.053,3.583,0.832,0.839c0.564-1.727,1.242-3.832,2.044-5.343c1.099-2.235,3.392-2.074,3.856,0.947
		c0.35,2.078,0.197,4.022,0.408,6.028c0.14,1.395,0.482,2.326,1.477,0.123c1.269-2.805,2.727-7.622,2.804-7.934
		C48.896,39.136,49.707,39.348,49.521,39.865z"/>
	<path fill="#FFFFFF" d="M48.429,54.692c1.217-3.536,3.666-6.241,6.186-8.911l-0.253-5.329c-0.118,0.554-0.251,1.055-0.438,1.572
		c-0.467,1.293-1.379,3.011-2.746,3.429c-0.789,0.242-1.596-0.144-2.081-0.973c-1-1.764-0.75-4.141,0.003-5.811
		c0.775-1.789,2.374-3.142,4.893-2.993l0.004-0.175c-0.03-1.6,2.308-1.856,2.5-0.478c0.132,0.995,0.494,5.37,0.551,7.998
		c1.827-2.112,3.431-4.386,4.353-7.199c0.15-0.448,0.946-0.29,0.76,0.228c-1.104,3.156-2.959,5.738-5.052,8.104
		c0.15,5.187,0.957,17.019-4.59,19.753c-1.654,0.794-2.884,0.538-3.889-1.052C47.607,61.213,47.211,58.229,48.429,54.692z
		 M53.918,58.532c0.717-3.67,0.75-7.879,0.686-11.655c-2.235,2.468-4.349,4.955-5.468,8.06c-1.124,3.277-0.792,6.052,0.128,7.553
		c0.521,0.761,1.356,1.425,2.291,0.908S53.397,61.338,53.918,58.532z M53.216,41.781c0.607-1.395,0.76-3.339,0.791-5.304
		c-2.637,0.404-3.479,4.229-2.835,6.331c0.161,0.526,0.379,0.862,0.659,0.834C52.457,43.624,52.976,42.314,53.216,41.781z"/>
	<path fill="#FFFFFF" d="M72.028,32.97c-0.621,1.916-2.067,4.89-3.764,6.675c-1.268,1.309-3.412,2.195-4.959,1.461
		c-1.996-0.884-2.349-3.536-1.886-5.404c0.447-1.92,1.885-3.798,4.157-4.264c0.927-0.169,1.662,0.354,1.357,1.425
		c-0.244,0.707-1.065,1.591-2.955,2.745c-0.397,1.33-0.359,2.583,0.004,3.393c0.492,1.229,2.157,1.41,3.813-0.132
		c1.53-1.39,3.002-4.658,3.489-6.073C71.472,32.277,72.163,32.469,72.028,32.97z M66.28,32.603c0.113-0.38-0.162-0.526-0.461-0.376
		c-0.772,0.293-1.324,1.498-1.551,2.258C65.47,33.713,66.146,33.104,66.28,32.603z"/>
	<path fill="#FFFFFF" d="M73.765,29.62c0.149,3.117,0.068,6.421,0.922,9.207c0.709,2.313,2.066,0.173,2.701-0.942
		c1.654-2.865,3.35-7.468,3.521-8.038c0.15-0.448,0.894-0.273,0.707,0.244c-0.187,0.517-1.766,5.314-3.523,8.211
		c-0.543,0.856-1.05,1.645-1.563,2.032c-1.363,0.992-2.677,0.647-3.496-0.713c-1.59-2.561-1.927-7.979-1.993-10.26
		c-0.151-4.439-0.222-16.496,3.659-19.41c0.939-0.69,1.886-0.98,2.677,0.1c0.403,0.567,0.763,1.55,0.976,2.807
		C79,16.858,78.292,23.747,73.765,29.62z M77.598,13.031c-0.181-1.152-0.507-2.03-0.842-2.56c-0.573-0.745-1.039-0.2-1.383,0.366
		c-0.292,0.55-0.52,1.31-0.792,2.486c-1.078,4.931-0.91,10.171-0.855,15.043C77.549,22.824,78.188,16.647,77.598,13.031z"/>
</g>
</svg>
