<?xml version="1.0" encoding="UTF-8" standalone="no"?><!DOCTYPE svg PUBLIC "-//W3C//DTD SVG 1.1//EN" "http://www.w3.org/Graphics/SVG/1.1/DTD/svg11.dtd"><svg width="100%" height="100%" viewBox="0 0 40 34" version="1.1" xmlns="http://www.w3.org/2000/svg" xmlns:xlink="http://www.w3.org/1999/xlink" xml:space="preserve" xmlns:serif="http://www.serif.com/" style="fill-rule:evenodd;clip-rule:evenodd;stroke-linejoin:round;stroke-miterlimit:1.41421;"><rect id="Artboard1" x="0" y="0" width="40" height="34" style="fill:none;"/><g><path d="M9.356,29.325c-0.131,0 -0.255,-0.066 -0.37,-0.197c-0.115,-0.132 -0.213,-0.28 -0.295,-0.444c-0.083,-0.164 -0.116,-0.263 -0.099,-0.296c0.23,-0.789 0.509,-1.659 0.838,-2.613c0.362,-1.051 0.666,-2.013 0.912,-2.884c0.247,-0.871 0.505,-2.05 0.777,-3.537c0.271,-1.487 0.546,-3.389 0.825,-5.706c0.017,-0.165 0.054,-0.276 0.111,-0.333c0.058,-0.058 0.177,-0.086 0.358,-0.086c0.394,0 0.69,0.11 0.887,0.332c0.197,0.222 0.296,0.489 0.296,0.801c0,0.461 -0.189,1.57 -0.567,3.328c0.509,-0.986 1.13,-1.836 1.861,-2.551c0.731,-0.715 1.532,-1.072 2.403,-1.072c0.723,0 1.319,0.258 1.787,0.776c0.469,0.518 0.703,1.196 0.703,2.034c0,0.871 -0.255,1.795 -0.764,2.773c-0.51,0.978 -1.212,1.791 -2.108,2.44c-0.895,0.649 -1.877,0.974 -2.945,0.974c-0.411,0 -0.752,-0.045 -1.023,-0.136c-0.272,-0.09 -0.407,-0.193 -0.407,-0.308c0,-0.049 0.062,-0.082 0.185,-0.098c0.123,-0.017 0.267,-0.025 0.431,-0.025c0.855,0 1.668,-0.271 2.441,-0.814c0.772,-0.542 1.396,-1.232 1.873,-2.07c0.476,-0.838 0.715,-1.676 0.715,-2.514c0,-0.559 -0.119,-1.015 -0.358,-1.368c-0.238,-0.354 -0.587,-0.53 -1.047,-0.53c-0.526,0 -1.064,0.217 -1.615,0.653c-0.55,0.435 -1.043,0.961 -1.479,1.577c-0.435,0.617 -0.768,1.196 -0.998,1.738c-0.608,2.597 -1.196,4.852 -1.763,6.767c-0.567,1.914 -0.99,3.003 -1.269,3.266c-0.082,0.082 -0.181,0.123 -0.296,0.123Z" style="fill:#fff;fill-rule:nonzero;"/><path d="M23.997,23.162c-0.674,0 -1.171,-0.23 -1.491,-0.69c-0.321,-0.46 -0.481,-1.076 -0.481,-1.848c0,-1.479 0.509,-3.488 1.528,-6.027c1.019,-2.539 2.157,-4.828 3.414,-6.865c1.257,-2.038 2.165,-3.057 2.724,-3.057c0.23,0 0.423,0.201 0.579,0.604c0.156,0.403 0.235,0.809 0.235,1.22c0,0.756 -0.309,1.869 -0.925,3.34c-0.616,1.471 -1.425,2.962 -2.428,4.474c-1.002,1.512 -2.07,2.736 -3.204,3.673c-0.214,0.953 -0.321,1.783 -0.321,2.49c0,1.265 0.362,1.898 1.085,1.898c0.608,0 1.228,-0.386 1.861,-1.159c0.633,-0.772 1.195,-1.701 1.688,-2.785l0.37,0.197c-1.413,3.024 -2.958,4.535 -4.634,4.535Zm0.173,-6.014c0.903,-0.904 1.787,-2.042 2.649,-3.414c0.863,-1.372 1.566,-2.687 2.108,-3.944c0.542,-1.257 0.813,-2.165 0.813,-2.724c0,-0.263 -0.057,-0.394 -0.172,-0.394c-0.23,0 -0.703,0.562 -1.418,1.688c-0.714,1.126 -1.45,2.502 -2.206,4.129c-0.756,1.627 -1.347,3.18 -1.774,4.659Z" style="fill:#fff;fill-rule:nonzero;"/></g></svg>