<?xml version="1.0" encoding="utf-8"?>
<!-- Generator: Adobe Illustrator 15.0.0, SVG Export Plug-In . SVG Version: 6.00 Build 0)  -->
<!DOCTYPE svg PUBLIC "-//W3C//DTD SVG 1.1//EN" "http://www.w3.org/Graphics/SVG/1.1/DTD/svg11.dtd">
<svg version="1.1" id="Warstwa_1" xmlns="http://www.w3.org/2000/svg" xmlns:xlink="http://www.w3.org/1999/xlink" x="0px" y="0px"
	 width="40px" height="43.346px" viewBox="0 0 40 43.346" enable-background="new 0 0 40 43.346" xml:space="preserve">
<g>
	<path fill="#FFFFFF" d="M320.356,98.23c-7.179,2.382-9.141,3.492-19.487,4.162c8.806,3.213,13.236-0.431,20.091-1.735
		C321.664,100.522,321.059,98.097,320.356,98.23L320.356,98.23z"/>
	<path fill="#FFFFFF" d="M320.953,97.743c-4.298,4.093-8.269,8.25-11.367,13.339c-0.838,1.379,8.969-7.602,13.113-11.549
		C323.865,98.42,322.121,96.629,320.953,97.743L320.953,97.743z"/>
	<path fill="#FFFFFF" d="M320.887,97.629c-3.187-0.436-6.287-1.194-9.023-2.934c-1.656-1.052-7.197-3.401-6.085-2.23
		c1.626,1.712,3.218,3.37,5.226,4.646c2.925,1.859,6.442,2.557,9.82,3.019C322.422,100.348,322.463,97.845,320.887,97.629
		L320.887,97.629z"/>
</g>
<polyline fill="none" stroke="#233D4B" stroke-miterlimit="10" points="9.163,43.346 30.837,21.673 9.163,0 "/>
</svg>
