<?xml version="1.0" encoding="utf-8"?>
<!-- Generator: Adobe Illustrator 15.0.0, SVG Export Plug-In . SVG Version: 6.00 Build 0)  -->
<!DOCTYPE svg PUBLIC "-//W3C//DTD SVG 1.1//EN" "http://www.w3.org/Graphics/SVG/1.1/DTD/svg11.dtd">
<svg version="1.1" id="Warstwa_1" xmlns="http://www.w3.org/2000/svg" xmlns:xlink="http://www.w3.org/1999/xlink" x="0px" y="0px"
	 width="160.216px" height="200.055px" viewBox="-1.356 -113.055 160.216 200.055"
	 enable-background="new -1.356 -113.055 160.216 200.055" xml:space="preserve">
<path fill="#FFFFFF" d="M23.778-76.274c1.698,0.332,6.521,1.289,8.268,1.385c3.473,0.155,5.527-0.657,8.741-1.415
	c0.78-0.194,4.863-5.251,5.695-6.821c3.296-6.328,6.458-12.781,9.583-19.221l3.656-10.708l-1.01,11.931
	c-0.443,5.231-0.962,10.455-1.438,15.683l-1.46,15.681l-0.177-1.226c1.004,2.427,1.785,4.78,2.517,7.227
	c0.72,2.435,1.339,4.909,1.808,7.442c0.463,2.534,0.786,5.126,0.792,7.816c-0.017,2.677-0.289,5.512-1.562,8.332
	c-0.667,1.461-1.562,2.58-2.403,3.63c-0.865,1.047-1.784,2.013-2.738,2.925c-1.91,1.819-3.954,3.43-6.098,4.89
	c-2.145,1.456-4.39,2.761-6.77,3.873c-2.393,1.091-4.876,2.064-7.768,2.459c-0.706,0.09-1.528,0.135-2.244,0.095
	c-0.866-0.047-1.556-0.16-2.288-0.324c-1.43-0.326-2.732-0.822-3.967-1.387c-2.462-1.143-4.656-2.575-6.721-4.14
	c-2.066-1.565-3.973-3.301-5.734-5.212c-1.746-1.895-3.443-4.051-4.534-6.652c-1.071-2.512-1.63-5.155-1.8-7.762
	c-0.18-2.611-0.027-5.191,0.323-7.717c0.726-5.053,2.175-9.908,4.401-14.478l-0.083,0.582c-0.795-6.32-1.556-12.645-2.306-18.971
	c-0.771-6.323-1.468-12.657-2.196-18.986 M55.408-97.277c-3.355,6.375-3.646,9.637-7.194,15.936
	c-0.893,1.579-1.805,3.129-2.815,4.708c-0.263,0.4-0.514,0.786-0.866,1.239c-0.499,0.627-1.094,1.008-1.612,1.272
	c-1.06,0.528-2.04,0.751-3.009,0.94c-1.93,0.345-3.796,0.418-5.655,0.406c-1.856-0.017-3.696-0.153-5.523-0.399
	c-1.827-0.244-3.642-0.581-5.438-1.078c-0.904-0.254-1.778-0.537-2.688-0.933c-1.092-0.506-1.751-1.262-2.372-1.995
	c-1.202-1.494-2.075-3.108-2.906-4.731c-0.819-1.628-1.551-3.285-2.242-4.954c-2.742-6.684-4.884-13.557-6.819-20.475
	c1.116,6.273,2.263,12.541,3.335,18.82c1.094,6.276,2.176,12.554,3.225,18.836l0.044,0.266l-0.126,0.316
	c-0.888,2.208-1.564,4.537-2.091,6.877c-0.535,2.341-0.923,4.711-1.109,7.08c-0.362,4.712,0.055,9.531,1.955,13.517
	c0.888,1.935,2.374,3.646,4.05,5.271c1.675,1.616,3.508,3.109,5.402,4.469c1.901,1.345,3.905,2.543,5.945,3.404
	c1.017,0.426,2.044,0.767,3.025,0.952c0.472,0.095,1.006,0.147,1.37,0.154c0.515,0.008,0.925-0.025,1.438-0.101
	c1.996-0.299,4.171-1.102,6.232-2.082c2.074-0.989,4.091-2.182,6.008-3.506c1.916-1.327,3.737-2.792,5.379-4.384
	c0.818-0.796,1.592-1.625,2.286-2.481c0.696-0.866,1.314-1.721,1.677-2.504c0.794-1.676,1.104-3.856,1.12-6.08
	c0.016-2.237-0.242-4.556-0.647-6.866c-0.813-4.608-2.225-9.295-3.862-13.671l-0.242-0.647l0.065-0.579l2.535-14.11"/>
<path fill="#FFFFFF" d="M25.625-47.885c0.506,0.696,1.023,1.102,1.548,1.411c0.517,0.307,1.028,0.518,1.528,0.682
	c0.997,0.333,1.95,0.46,2.769,0.451c0.822-0.029,1.53-0.125,2.458-0.581c0.932-0.454,1.938-1.321,3.221-2.423
	c0.568,1.585,0.406,3.356-0.601,4.937c-0.502,0.782-1.249,1.471-2.134,1.948c-0.884,0.481-1.899,0.726-2.883,0.736
	c-1.979,0.019-3.802-0.835-5.026-2.192c-0.605-0.686-1.075-1.505-1.271-2.403C25.04-46.207,25.121-47.181,25.625-47.885z"/>
<path fill="#FFFFFF" d="M43.831-52.421c-1.508,0-2.777-0.627-3.573-1.767c-1.029-1.472-1.141-3.621-0.308-5.896
	c1.475-4.03,4.066-6.341,7.107-6.341c3.269,0,5.38,2.749,5.38,7.002C52.438-55.427,47.217-52.421,43.831-52.421z M47.058-62.577
	c-1.546,0-2.818,1.971-3.494,3.816c-0.456,1.246-0.34,2.1-0.152,2.37c0.023,0.033,0.086,0.123,0.419,0.123
	c1.766,0,4.759-1.792,4.759-3.154C48.59-60.371,48.44-62.577,47.058-62.577z"/>
<path fill="#FFFFFF" d="M20.785-52.871c-3.385,0-8.607-3.007-8.607-7.002c0-3.861,2.827-7.002,6.303-7.002
	c3.475,0,6.302,3.141,6.302,7.002c0,0.311,0.004,0.614,0.009,0.909c0.028,1.936,0.054,3.764-1.189,5.025
	C22.904-53.23,21.957-52.871,20.785-52.871z M18.481-63.027c-1.331,0-2.455,1.444-2.455,3.154c0,1.361,2.994,3.154,4.759,3.154
	c0.028,0,0.053,0,0.075-0.001c0.109-0.45,0.094-1.479,0.084-2.188c-0.004-0.313-0.009-0.635-0.009-0.964
	C20.936-61.583,19.812-63.027,18.481-63.027z"/>
<rect x="29.096" y="-42.365" transform="matrix(0.9981 0.0612 -0.0612 0.9981 -2.367 -1.9505)" fill="#FFFFFF" width="3.078" height="5.553"/>
<path fill="#FFFFFF" d="M23.781-39.558c1.251,0.748,2.406,1.39,3.597,1.833c1.183,0.45,2.377,0.717,3.579,0.79
	c1.201,0.069,2.409-0.046,3.597-0.389c1.193-0.341,2.346-0.903,3.516-1.774c-0.369,1.426-1.45,2.658-2.777,3.433
	c-1.334,0.782-2.925,1.132-4.476,1.033c-1.553-0.092-3.065-0.634-4.303-1.503C25.276-37.007,24.3-38.193,23.781-39.558z"/>
<path fill="#FFFFFF" d="M10.415-37.284C7.31-31.372,4.332-25.358,2.701-19.027c-0.827,3.155-1.245,6.379-1.267,9.583
	C1.419-6.235,1.898-3.052,2.732,0.038C3.15,1.584,3.66,3.107,4.251,4.603C4.835,6.1,5.485,7.579,6.24,8.953
	c1.484,2.774,3.399,5.135,5.862,6.951c2.452,1.835,5.386,3.228,8.375,4.629c3.002,1.382,6.068,2.77,9.076,4.276l-2.271,0.951
	c0.487-1.293,0.92-2.588,1.047-3.798c0.14-1.211-0.076-2.309-0.63-3.526c-0.551-1.205-1.309-2.477-2.002-3.78
	c-0.352-0.637-0.705-1.356-1.03-1.898c-0.349-0.588-0.741-1.159-1.166-1.715c-1.693-2.236-3.879-4.213-5.819-6.494
	c-0.952-1.153-1.831-2.41-2.419-3.806c-0.583-1.397-0.828-2.917-0.7-4.38c0.117,1.466,0.549,2.872,1.274,4.098
	c0.71,1.235,1.667,2.301,2.707,3.287c2.063,1.991,4.475,3.708,6.526,5.992c0.511,0.57,1,1.17,1.451,1.809
	c0.476,0.684,0.818,1.255,1.236,1.863c0.806,1.209,1.668,2.385,2.426,3.801c0.377,0.707,0.722,1.491,0.939,2.345
	c0.22,0.85,0.304,1.75,0.269,2.604c-0.066,1.72-0.493,3.259-0.971,4.721l-0.553,1.692l-1.718-0.741
	c-3.042-1.312-6.113-2.551-9.204-3.894c-3.078-1.347-6.245-2.794-9.149-4.97c-1.438-1.089-2.787-2.359-3.92-3.785
	c-1.137-1.424-2.091-2.962-2.879-4.545C1.465,7.468,0.313,4.227-0.47,0.832C-1.243-2.555-1.548-6.062-1.356-9.527
	c0.175-3.47,0.934-6.874,2.028-10.107C2.902-26.117,6.481-31.889,10.415-37.284z"/>
<g>
	<path fill="#FFFFFF" d="M56.967-41.893"/>
</g>
<path fill="#FFFFFF" d="M30.234,20.791c-0.241-1.075-0.323-2.185-0.314-3.295c0.033-1.11,0.189-2.219,0.443-3.305
	c0.509-2.178,1.474-4.223,2.63-6.116c1.174-1.887,2.543-3.638,4.034-5.264c1.487-1.629,3.066-3.165,4.73-4.604l-2.16,2.487
	c-0.724,0.822-1.436,1.653-2.122,2.503c-1.372,1.699-2.697,3.431-3.828,5.28c-1.144,1.839-2.09,3.798-2.716,5.865
	C30.312,16.41,30.076,18.597,30.234,20.791z"/>
<path fill="#FFFFFF" d="M77.469-31.683c-7.128-10.535-11.165-23.869-7.394-36.389c5.19-17.228,24.325-23.718,40.32-26.113
	c-1.074-0.546-2.147-1.094-3.222-1.64c-8.302,28.554,11.371,52.262,26.461,74.342c7.751,11.341,15.024,23.449,17.238,37.218
	c2.562,15.929-3.665,32.905-15.648,43.641c-5.1,4.568-13.097,9.139-20.22,7.302c-2.409-0.62-8.771,3.003-4.536,4.095
	c11.329,2.921,24.041-3.851,32.054-11.328c11.53-10.76,17.432-26.896,16.17-42.506c-2.269-28.084-26.201-48.917-38.607-72.684
	c-6.708-12.854-9.587-26.838-5.473-40.99c0.478-1.642-2.308-1.777-3.222-1.64C92.92-95.61,71.956-88.654,63.782-70.247
	c-6.094,13.719-1.196,29.692,6.789,41.495C71.999-26.643,79.205-29.116,77.469-31.683L77.469-31.683z"/>
<path fill="#FFFFFF" d="M85.071,2.787C67.46-0.044,46.759,7.21,42.373,26.267c-4.694,20.399,13.368,35.745,30.846,41.326
	c0.277-1.103,0.553-2.205,0.829-3.308c-2.552,1.638-5.733,1.724-8.678,1.965c-3.784,0.313-7.575,0.448-11.309,1.187
	c-8.513,1.682-15.447,6.161-16.755,15.248c-0.096,0.669,0.191,1.278,0.884,1.5c5.087,1.63,10.82,0.896,16.021,0.296
	c7.754-0.896,15.437-2.478,23.061-4.116c12.185-2.62,24.654-5.333,36.438-9.468c0.997-0.35,3.813-2.043,2.421-3.423
	c-1.434-1.421-4.295-0.556-5.88,0.001c-0.796,0.279,1.22-0.4,0.261-0.089c-0.304,0.099-0.609,0.192-0.914,0.287
	c-0.792,0.246-1.59,0.479-2.386,0.71c-2.436,0.709-4.882,1.374-7.332,2.029c-6.734,1.801-13.508,3.456-20.309,4.989
	c-7.002,1.578-14.047,2.987-21.153,4.006c-2.736,0.392-5.492,0.728-8.256,0.841c-1.692,0.068-3.976,0.026-4.839-0.251
	c0.295,0.501,0.589,1.001,0.884,1.501c0.446-3.102,0.576-7.295,3.367-9.111c2.363-1.538,6.436-2.354,9.142-2.589
	c7.085-0.615,14.604,0.894,20.808-3.085c0.921-0.591,2.958-2.628,0.829-3.308c-15.568-4.971-34.268-17.211-32.641-35.279
	c0.586-6.516,4.494-13.308,9.537-17.459c5.614-4.623,15.407-5.863,22.313-4.753c2.113,0.34,4.662,1.242,6.308-0.151
	C87.259,4.585,86.917,3.083,85.071,2.787L85.071,2.787z"/>
<path fill="#FFFFFF" d="M57.428-43.276c0.234,1.32,1.125,2.235,2.095,2.984c0.971,0.762,2.064,1.388,3.173,1.995
	c2.237,1.19,4.575,2.271,6.923,3.385c4.697,2.222,9.42,4.612,13.971,7.426c4.551,2.809,8.926,6.052,12.927,9.8
	c2.009,1.865,3.885,3.887,5.675,5.995c1.769,2.126,3.402,4.378,4.904,6.718c1.474,2.359,2.802,4.814,3.963,7.344
	c1.129,2.545,2.121,5.149,2.899,7.81c1.56,5.321,2.398,10.808,2.537,16.249c0.147,5.443-0.348,10.835-1.379,16.069
	c-1.05,5.23-2.569,10.321-4.683,15.165c0.146-5.28,0.314-10.45,0.16-15.557c-0.139-5.101-0.528-10.124-1.33-15.016
	c-1.551-9.791-4.817-19.006-9.973-27.134c-5.124-8.162-12.077-15.178-19.896-21.547c-3.896-3.215-8.022-6.259-12.153-9.483
	c-2.055-1.627-4.134-3.276-6.072-5.168c-0.967-0.945-1.9-1.959-2.676-3.119c-0.378-0.586-0.713-1.213-0.931-1.882
	C57.339-41.906,57.271-42.63,57.428-43.276z"/>
<path fill="#FFFFFF" d="M29.316,27.704c0.885-0.684,1.567-1.39,2.282-2.1c0.706-0.707,1.408-1.402,2.124-2.09
	c1.435-1.365,2.93-2.677,4.538-3.89c1.606-1.213,3.32-2.331,5.201-3.262c0.945-0.458,1.928-0.875,2.977-1.185
	c0.527-0.148,1.061-0.287,1.621-0.357c0.555-0.076,1.128-0.118,1.689-0.021c-0.8,0.78-1.437,1.547-2.117,2.308
	c-0.673,0.756-1.355,1.491-2.059,2.208c-1.411,1.426-2.907,2.774-4.535,3.996c-1.628,1.221-3.378,2.332-5.31,3.215
	c-0.97,0.433-1.984,0.814-3.062,1.067c-0.54,0.121-1.09,0.224-1.659,0.25C30.446,27.875,29.859,27.862,29.316,27.704z"/>
<path fill="#FFFFFF" d="M17.098,21.745c0.48,3.892,1.271,7.664,2.465,11.295c0.615,1.808,1.277,3.595,2.076,5.323
	c0.776,1.736,1.636,3.436,2.606,5.072c0.936,1.656,1.978,3.251,3.092,4.796c1.09,1.563,2.305,3.035,3.547,4.488
	c2.535,2.859,5.297,5.55,8.567,7.709c-1.87-0.621-3.609-1.609-5.258-2.704c-1.636-1.119-3.182-2.378-4.61-3.759
	c-1.451-1.361-2.753-2.871-3.996-4.426c-1.219-1.573-2.326-3.234-3.339-4.95c-0.977-1.737-1.873-3.523-2.615-5.374
	c-0.719-1.858-1.366-3.748-1.798-5.691C16.923,29.656,16.621,25.643,17.098,21.745z"/>
<path fill="#FFFFFF" d="M39.08,59.634c-1.168,1.211-2.639,2.189-4.241,2.86c-1.602,0.688-10.232,2.592-11.873,2.892
	c-1.65,0.276-8.539,2.63-11.384,4.219c-1.415,0.79-2.793,1.719-3.852,2.879c-0.259,0.288-0.503,0.589-0.666,0.901
	c-0.164,0.31-0.222,0.625-0.149,0.782c0.051,0.158,0.263,0.326,0.58,0.434c0.311,0.111,0.677,0.178,1.054,0.216
	c0.757,0.073,1.544,0.022,2.378-0.024c0.81-0.048,1.629-0.112,2.439-0.189c1.624-0.156,3.24-0.304,4.853-0.481
	c3.23-0.333,6.424-0.918,9.653-1.423c3.228-0.508,17.274-3.282,20.606-3.565c3.322-0.265-4.025,1.97-0.725,2.664l-0.013,1.078
	c-3.3,0.408-6.466,1.074-9.659,1.803c-3.189,0.721-6.396,0.738-9.682,1.281c-3.283,0.554-6.636,0.833-9.99,0.951
	c-1.678,0.053-3.36,0.028-5.035-0.11c-0.839-0.068-1.669-0.15-2.508-0.249c-0.813-0.102-1.681-0.18-2.552-0.388
	c-0.436-0.102-0.877-0.231-1.321-0.455c-0.419-0.22-0.956-0.58-1.133-1.24c-0.156-0.654,0.099-1.182,0.333-1.575
	c0.249-0.405,0.532-0.747,0.833-1.062c1.229-1.226,2.587-2.19,3.935-3.19c2.734-1.931,17.018-6.226,18.643-6.346
	c1.629-0.099,3.205-0.995,4.749-1.316c1.547-0.315,3.047-0.868,4.546-1.598L39.08,59.634z"/>
</svg>
